<?xml version="1.0" standalone="no"?>
<!DOCTYPE svg PUBLIC "-//W3C//DTD SVG 20010904//EN"
 "http://www.w3.org/TR/2001/REC-SVG-20010904/DTD/svg10.dtd">
<svg version="1.0" xmlns="http://www.w3.org/2000/svg"
 width="998.000000pt" height="507.000000pt" viewBox="0 0 998.000000 507.000000"
 preserveAspectRatio="xMidYMid meet">

<g transform="translate(0.000000,507.000000) scale(0.100000,-0.100000)"
fill="#000000" stroke="none">
<path d="M1950 4623 c-756 -75 -1408 -514 -1720 -1158 -152 -313 -222 -624
-224 -990 -1 -279 37 -496 124 -717 157 -398 425 -637 805 -720 98 -21 353
-15 447 10 409 111 718 441 887 948 82 247 111 437 118 762 14 655 -108 1079
-328 1142 -71 21 -270 -33 -387 -104 -69 -41 -158 -133 -168 -170 -13 -53 9
-159 71 -344 75 -223 97 -304 124 -472 42 -255 53 -513 30 -718 -40 -375 -213
-631 -482 -713 -62 -19 -76 -20 -162 -10 -333 39 -587 288 -694 681 -110 402
-35 963 181 1361 109 200 293 410 465 532 161 115 368 204 575 248 135 29 437
37 573 15 386 -64 712 -308 854 -641 60 -142 75 -223 76 -405 0 -146 -3 -174
-23 -240 -31 -99 -71 -167 -130 -222 -53 -49 -149 -100 -227 -119 -105 -25
-128 -55 -105 -138 28 -105 115 -148 280 -138 283 16 619 227 790 496 42 66
47 71 81 71 56 0 139 48 182 105 107 142 101 394 -11 470 -20 14 -49 25 -63
25 -25 0 -28 4 -39 68 -49 285 -209 539 -460 728 -110 84 -342 200 -504 252
-142 47 -321 85 -468 101 -89 10 -385 13 -468 4z m1912 -1215 c3 -119 -4 -203
-23 -285 -20 -91 -85 -243 -103 -243 -23 0 -76 41 -101 78 -50 75 -52 212 -6
316 48 110 138 196 203 196 28 0 28 -1 30 -62z"/>
<path d="M6175 4616 c-110 -35 -211 -125 -235 -210 -32 -116 42 -281 154 -341
20 -11 36 -23 36 -28 0 -5 -11 -23 -24 -40 -51 -69 -98 -166 -91 -188 12 -38
88 -111 140 -135 142 -67 306 9 309 141 1 36 4 44 16 39 36 -13 155 -34 199
-34 151 0 242 88 243 236 2 313 -281 576 -617 573 -49 0 -108 -6 -130 -13z
m345 -76 c155 -44 263 -129 321 -254 58 -124 49 -283 -19 -355 -63 -66 -150
-74 -376 -35 -48 8 -90 13 -93 11 -2 -3 16 -13 41 -22 53 -20 57 -36 23 -86
-36 -53 -97 -82 -186 -86 -87 -5 -135 13 -161 59 -14 25 -13 30 3 55 28 43 57
113 69 164 l11 45 -55 55 c-131 131 -144 290 -33 387 78 69 160 94 290 87 50
-2 124 -14 165 -25z"/>
<path d="M6175 4476 c-67 -32 -96 -65 -102 -118 -11 -100 71 -223 181 -274 63
-29 116 -41 116 -26 0 12 -73 74 -150 127 -145 99 -151 126 -55 226 36 37 65
72 65 78 0 14 3 15 -55 -13z"/>
<path d="M5387 4329 c-119 -28 -224 -123 -247 -223 -47 -212 281 -519 496
-465 43 11 94 56 94 83 0 7 20 33 44 57 112 113 79 310 -72 435 -115 95 -225
135 -315 113z m138 -39 c51 -25 195 -170 223 -227 52 -102 51 -193 -3 -272
-19 -27 -32 -51 -29 -54 3 -2 -10 -17 -28 -32 -29 -24 -38 -27 -85 -22 -81 8
-184 68 -273 157 -150 151 -169 277 -59 388 80 80 171 102 254 62z"/>
<path d="M5402 4231 c17 -28 -14 -61 -59 -61 -36 0 -42 10 -18 30 24 20 17 29
-16 20 -63 -18 -78 -59 -36 -97 67 -62 187 -13 187 76 0 25 -26 51 -51 51 -16
0 -17 -3 -7 -19z"/>
<path d="M7445 4114 c-16 -8 -44 -29 -61 -45 -35 -34 -80 -49 -142 -49 -51 0
-108 -24 -127 -54 -7 -12 -16 -39 -20 -60 -5 -29 -20 -52 -59 -90 -70 -67 -81
-89 -66 -126 16 -39 51 -49 140 -40 58 5 84 4 115 -8 62 -24 152 -21 202 7 30
18 50 22 75 18 170 -31 177 -30 238 27 55 52 82 66 123 66 58 0 103 26 160 94
29 33 71 79 95 102 48 47 51 57 20 78 -29 21 -70 20 -194 -1 -114 -19 -104
-21 -289 61 -90 40 -159 47 -210 20z"/>
<path d="M4878 4069 c-22 -12 -24 -39 -3 -39 8 0 15 5 15 11 0 5 -5 7 -12 3
-7 -4 -8 -3 -4 4 11 19 44 14 56 -7 18 -34 11 -71 -16 -96 -54 -50 -118 -17
-112 58 2 33 8 44 28 54 18 9 20 13 8 13 -57 0 -79 -100 -33 -145 47 -48 142
-17 159 50 7 27 -17 95 -33 95 -5 0 -15 2 -23 5 -7 2 -21 0 -30 -6z"/>
<path d="M4560 3992 c-43 -44 -37 -102 11 -102 21 0 34 29 19 44 -7 7 -10 5
-10 -7 0 -19 -15 -23 -25 -7 -8 14 12 48 36 61 52 28 140 -27 153 -95 9 -49
-10 -114 -44 -148 -24 -23 -37 -28 -77 -28 -58 1 -84 14 -118 60 -30 40 -33
98 -8 138 l17 27 -22 -19 c-90 -78 1 -246 133 -246 84 0 137 49 157 144 22
105 -40 194 -142 204 -44 4 -52 2 -80 -26z"/>
<path d="M4863 3843 c-7 -2 -13 -14 -13 -24 0 -11 5 -17 10 -14 6 4 8 11 5 16
-4 5 3 9 14 9 32 0 46 -36 26 -66 -8 -13 -22 -24 -30 -24 -23 0 -47 31 -42 56
2 13 0 21 -4 18 -16 -9 -10 -50 9 -67 24 -22 55 -21 75 1 24 26 21 68 -5 86
-24 17 -26 17 -45 9z"/>
<path d="M4641 3460 c-92 -19 -163 -79 -208 -175 -38 -81 -39 -187 -4 -255 57
-111 136 -155 246 -139 33 5 89 9 125 10 l65 0 26 77 25 77 84 0 c47 0 92 -3
102 -7 9 -4 28 -39 43 -76 l27 -69 66 1 67 1 12 85 c6 47 17 133 24 193 12
105 21 129 34 85 10 -32 113 -216 126 -224 6 -3 18 0 26 9 17 17 113 223 113
243 0 8 5 14 10 14 6 0 10 -19 10 -42 0 -24 5 -63 11 -88 6 -25 14 -94 18
-155 l6 -110 34 -3 c18 -2 38 1 43 6 16 16 -39 486 -62 532 -4 8 -20 16 -37
18 -27 3 -33 -2 -55 -45 -13 -26 -44 -84 -68 -127 -43 -78 -44 -79 -61 -58 -9
12 -36 57 -59 99 -62 113 -76 131 -105 131 -33 0 -41 -17 -50 -108 -4 -41 -13
-111 -21 -155 -8 -44 -14 -105 -14 -135 -1 -51 -2 -53 -15 -36 -8 11 -15 31
-15 45 0 14 -7 40 -16 56 -16 29 -50 120 -60 160 -22 81 -66 159 -97 169 -39
14 -59 -1 -78 -60 -8 -27 -20 -60 -26 -74 -20 -45 -82 -224 -98 -282 -14 -51
-19 -58 -51 -68 -55 -18 -174 -8 -217 19 -47 29 -62 70 -62 166 0 132 44 191
163 216 48 10 64 9 110 -6 45 -14 56 -15 63 -3 19 30 -23 88 -65 88 -11 0 -37
2 -56 4 -19 3 -55 1 -79 -4z m413 -41 c25 -20 35 -49 16 -49 -5 0 2 -11 16
-25 14 -15 23 -32 20 -40 -3 -8 -1 -15 4 -15 6 0 10 -11 10 -25 0 -19 -4 -23
-17 -18 -42 16 -58 58 -33 89 14 17 14 18 -2 6 -9 -8 -22 -11 -29 -7 -8 6 -7
10 2 16 8 5 9 9 3 9 -6 0 -25 -13 -42 -30 -18 -16 -36 -30 -41 -30 -15 0 1 50
21 61 10 5 16 15 12 20 -9 16 5 59 20 59 7 0 25 -9 40 -21z m281 11 c3 -5 -1
-10 -9 -10 -9 0 -16 5 -16 10 0 6 4 10 9 10 6 0 13 -4 16 -10z m355 -17 c0
-16 3 -45 6 -65 5 -31 4 -38 -9 -38 -9 0 -20 7 -25 16 -6 11 -17 15 -31 11
-11 -3 -19 -1 -15 4 3 5 16 9 29 9 13 0 27 5 30 10 3 6 -4 10 -17 10 l-23 1
25 14 c22 12 23 14 7 20 -14 6 -15 10 -6 21 18 22 29 17 29 -13z m-890 7 c0
-5 -2 -10 -4 -10 -3 0 -8 5 -11 10 -3 6 -1 10 4 10 6 0 11 -4 11 -10z m551
-33 c-1 -12 -15 -9 -19 4 -3 6 1 10 8 8 6 -3 11 -8 11 -12z m-824 -40 c-3 -8
-15 -17 -27 -20 l-22 -6 23 25 c23 25 35 25 26 1z m801 -35 c2 -7 -3 -12 -12
-12 -9 0 -16 7 -16 16 0 17 22 14 28 -4z m-334 -17 c-4 -8 -14 -15 -23 -15
-14 1 -13 3 3 15 25 19 27 19 20 0z m606 5 c0 -5 -5 -10 -11 -10 -5 0 -7 5 -4
10 3 6 8 10 11 10 2 0 4 -4 4 -10z m-520 -142 c0 -14 -8 -18 -34 -18 -19 0
-40 -2 -48 -5 -7 -3 -18 -1 -25 3 -9 6 -6 20 12 57 13 28 25 57 25 66 0 9 3
19 8 23 8 9 61 -99 62 -126z m240 112 c0 -5 -4 -10 -10 -10 -5 0 -10 5 -10 10
0 6 5 10 10 10 6 0 10 -4 10 -10z m280 2 c0 -5 -9 -17 -19 -26 -11 -10 -17
-25 -14 -34 4 -10 2 -13 -5 -8 -7 4 -10 -5 -10 -25 1 -33 -22 -59 -51 -59 -12
0 -12 3 -3 12 17 17 15 28 -5 23 -10 -3 -7 0 7 7 14 7 26 20 28 28 2 8 13 25
24 38 12 12 18 22 14 22 -5 0 -3 7 4 15 14 16 30 20 30 7z m-1135 -22 c-3 -5
-1 -10 5 -10 6 0 8 -4 5 -10 -10 -16 -21 -11 -22 10 -1 11 3 20 8 20 6 0 7 -4
4 -10z m500 -10 c0 -8 -9 -16 -20 -18 l-20 -4 20 17 c17 14 17 16 3 11 -10 -3
-18 -1 -18 5 0 6 8 9 18 7 9 -2 17 -10 17 -18z m355 -5 c0 -2 -6 -5 -13 -8 -8
-3 -14 1 -14 8 0 7 6 11 14 8 7 -3 13 -6 13 -8z m-210 -4 c0 -6 -4 -13 -10
-16 -5 -3 -10 1 -10 9 0 9 5 16 10 16 6 0 10 -4 10 -9z m28 -37 c-1 -9 -8 -19
-14 -21 -10 -3 -11 8 -5 52 0 5 6 4 12 -2 6 -6 9 -19 7 -29z m-671 -3 c0 -11
-6 -17 -14 -14 -14 6 -17 16 -6 26 12 13 22 7 20 -12z m997 10 c4 -5 -3 -7
-14 -4 -23 6 -26 13 -6 13 8 0 17 -4 20 -9z m-524 -5 c0 -2 -7 -6 -15 -10 -8
-3 -15 -1 -15 4 0 6 7 10 15 10 8 0 15 -2 15 -4z m790 -16 c0 -5 -4 -10 -10
-10 -5 0 -10 5 -10 10 0 6 5 10 10 10 6 0 10 -4 10 -10z m-566 -42 c7 -37 9
-34 -28 -44 l-30 -7 23 31 c12 18 17 32 11 32 -6 0 -8 5 -5 10 11 18 22 10 29
-22z m-696 -5 c2 -7 -1 -13 -8 -13 -6 0 -8 5 -4 12 5 8 2 9 -9 5 -10 -3 -17
-2 -17 4 0 14 32 7 38 -8z m438 2 c-21 -16 -32 -13 -21 4 3 6 14 11 23 11 15
-1 15 -2 -2 -15z m392 -28 c4 -37 -13 -34 -27 4 -9 27 -8 30 7 27 10 -2 18
-14 20 -31z m432 23 c0 -5 -5 -10 -11 -10 -5 0 -7 5 -4 10 3 6 8 10 11 10 2 0
4 -4 4 -10z m-1258 -32 c4 -41 28 -98 40 -98 5 0 7 -4 4 -9 -5 -7 96 -38 179
-55 11 -2 -1 -4 -26 -5 -90 -2 -209 54 -196 92 2 7 -3 17 -12 23 -13 10 -13
14 -2 28 12 14 12 16 -3 10 -16 -6 -22 6 -9 19 10 11 23 8 25 -5z m608 2 c0
-16 -49 -23 -73 -12 -21 11 -20 11 4 6 15 -3 30 -1 33 5 9 14 36 14 36 1z
m-120 -10 c-20 -13 -33 -13 -25 0 3 6 14 10 23 10 15 0 15 -2 2 -10z m195 -10
c-3 -5 -12 -10 -18 -10 -7 0 -6 4 3 10 19 12 23 12 15 0z m25 -20 c0 -13 -5
-18 -15 -14 -12 5 -13 10 -4 20 15 19 19 18 19 -6z m110 -24 c0 -24 -16 -43
-26 -33 -8 7 7 57 17 57 5 0 9 -11 9 -24z m-120 -6 c0 -5 8 -7 18 -3 13 4 14
3 6 -6 -6 -6 -18 -9 -27 -5 -18 7 -23 24 -7 24 6 0 10 -4 10 -10z m35 -40 c-3
-5 -1 -10 4 -10 6 0 11 -9 11 -20 0 -11 -5 -20 -11 -20 -6 0 -8 7 -5 16 4 11
-1 18 -14 21 -22 6 -17 23 6 23 8 0 12 -4 9 -10z m545 -26 c0 -13 -4 -24 -9
-24 -10 0 -21 47 -13 54 10 11 22 -6 22 -30z m-470 -15 c0 -11 -4 -17 -10 -14
-5 3 -10 15 -10 26 0 11 5 17 10 14 6 -3 10 -15 10 -26z m-485 -9 c-3 -5 -23
-9 -43 -9 l-37 1 30 8 c44 11 57 11 50 0z"/>
<path d="M5863 3463 c-7 -2 -13 -18 -13 -33 0 -16 -5 -32 -10 -35 -7 -4 -7
-11 -2 -18 5 -7 12 -115 14 -240 5 -247 5 -247 61 -247 l27 0 0 95 0 95 50 0
c121 0 196 37 231 114 l17 39 7 -58 c4 -32 5 -102 1 -155 -5 -73 -4 -99 6
-107 11 -9 116 -16 322 -23 11 -1 22 3 25 8 4 5 29 6 61 1 93 -13 154 -10 219
12 69 24 83 39 102 117 12 47 11 57 -4 85 -21 39 -71 75 -117 83 -19 4 -54 17
-77 30 -23 13 -50 24 -61 24 -22 0 -72 53 -72 76 0 28 46 62 93 69 39 6 56 2
117 -26 60 -27 73 -30 81 -18 5 8 9 21 9 29 0 13 14 14 82 10 l83 -5 0 -232
c0 -159 4 -236 11 -243 6 -6 24 -10 40 -8 26 3 30 8 37 53 4 28 5 130 2 227
-8 205 -13 194 100 205 50 5 65 10 66 22 0 10 4 7 10 -8 5 -13 10 -131 12
-262 l2 -239 31 0 c48 0 56 17 52 122 l-3 93 46 3 c45 3 47 2 86 -50 22 -29
47 -69 56 -88 10 -19 29 -48 43 -63 21 -23 32 -27 53 -22 36 9 36 11 15 42
-10 15 -40 68 -65 116 l-48 89 44 41 c34 34 45 51 50 89 11 73 -1 121 -41 159
l-35 34 -140 1 c-95 1 -144 -2 -151 -10 -8 -8 -36 -9 -97 -4 -74 5 -273 11
-307 9 -7 -1 -15 -13 -18 -27 l-7 -25 -17 20 c-27 33 -163 48 -235 27 -87 -25
-137 -94 -123 -170 9 -48 32 -64 174 -127 136 -59 161 -82 148 -135 -15 -57
-175 -78 -251 -33 -36 22 -38 22 -51 4 -11 -15 -22 -17 -64 -11 -29 4 -68 2
-92 -5 -23 -6 -61 -8 -85 -4 l-43 6 0 80 c0 43 1 80 3 80 1 1 49 4 107 8 l104
6 7 31 c9 48 -13 56 -126 48 l-93 -7 -1 71 c0 68 0 70 27 77 15 4 72 9 126 11
55 2 101 6 103 7 1 2 6 17 9 34 5 28 3 31 -23 35 -15 2 -94 2 -175 0 l-148 -4
0 -61 0 -60 -31 46 c-46 69 -93 87 -228 86 -58 0 -112 -3 -118 -6z m217 -23
c59 -11 117 -57 106 -85 -3 -9 -2 -13 3 -10 14 8 21 -9 11 -25 -7 -11 -11 -11
-24 3 -9 8 -16 20 -16 24 0 5 -13 22 -29 37 -30 29 -73 36 -121 21 -15 -5 -20
-4 -16 4 4 6 1 11 -6 11 -8 1 -6 6 6 15 23 18 20 18 86 5z m-170 -21 c-20 -17
-21 -20 -5 -14 11 4 27 9 35 12 8 3 1 -5 -17 -17 -34 -23 -63 -19 -43 5 7 8 9
19 5 25 -4 6 5 10 22 10 l28 0 -25 -21z m973 12 c48 -11 51 -15 38 -38 -10
-16 -10 -16 -11 5 0 18 -5 22 -22 19 -13 -3 -41 1 -63 8 -38 12 -39 13 -10 14
17 0 47 -3 68 -8z m147 -1 c0 -5 -7 -10 -15 -10 -8 0 -15 5 -15 10 0 6 7 10
15 10 8 0 15 -4 15 -10z m425 0 c3 -6 -1 -7 -9 -4 -18 7 -21 14 -7 14 6 0 13
-4 16 -10z m75 0 c0 -5 -11 -10 -25 -10 -14 0 -25 5 -25 10 0 6 11 10 25 10
14 0 25 -4 25 -10z m50 0 c0 -5 -6 -10 -14 -10 -8 0 -18 5 -21 10 -3 6 3 10
14 10 12 0 21 -4 21 -10z m54 -5 c-4 -8 -12 -15 -19 -15 -7 0 -15 7 -19 15 -4
11 1 15 19 15 18 0 23 -4 19 -15z m-1316 -10 c-15 -8 -34 -12 -42 -9 -26 10
-7 24 32 24 l37 -1 -27 -14z m377 5 c-3 -5 -12 -10 -18 -10 -7 0 -6 4 3 10 19
12 23 12 15 0z m495 -2 c0 -6 -7 -7 -16 -4 -13 5 -15 1 -12 -18 3 -14 1 -31
-3 -38 -6 -8 -9 0 -9 24 0 26 -5 38 -17 41 -10 2 -1 4 20 4 20 1 37 -4 37 -9z
m73 5 c-7 -2 -19 -2 -25 0 -7 3 -2 5 12 5 14 0 19 -2 13 -5z m446 -19 c12 -15
21 -34 20 -43 0 -10 -2 -12 -6 -3 -2 6 -15 12 -29 12 -17 0 -22 4 -18 15 4 9
0 15 -10 15 -9 0 -16 7 -16 15 0 24 37 17 59 -11z m-73 -39 c13 -8 26 -29 29
-49 16 -82 -8 -103 -121 -108 l-69 -3 -5 80 c-4 48 -2 86 4 94 14 18 129 8
162 -14z m-1503 -24 c21 -35 22 -71 3 -116 -17 -39 -39 -48 -131 -49 l-60 -1
-3 98 -3 97 88 0 c87 0 89 0 106 -29z m1307 -19 c0 -21 -2 -24 -10 -12 -13 20
-13 53 0 45 6 -3 10 -18 10 -33z m-1530 18 c0 -5 -7 -10 -16 -10 -8 0 -12 5
-9 10 3 6 10 10 16 10 5 0 9 -4 9 -10z m1808 -12 c18 -18 15 -68 -3 -68 -8 0
-15 5 -15 10 0 6 5 10 11 10 5 0 3 10 -5 22 -25 35 -16 54 12 26z m-1418 -18
c0 -5 -5 -10 -11 -10 -5 0 -7 5 -4 10 3 6 8 10 11 10 2 0 4 -4 4 -10z m-390
-23 c0 -13 -6 -32 -14 -42 -13 -18 -14 -17 -10 14 6 50 24 72 24 28z m310 8
c0 -8 -7 -15 -15 -15 -26 0 -18 20 13 29 1 1 2 -6 2 -14z m70 -24 c0 -6 -4
-13 -10 -16 -5 -3 -10 1 -10 9 0 9 5 16 10 16 6 0 10 -4 10 -9z m-76 -26 c-4
-8 -16 -15 -28 -15 -21 1 -21 1 -2 15 25 19 37 19 30 0z m-294 -30 c0 -8 -9
-19 -20 -25 -23 -12 -25 -7 -10 21 13 22 30 25 30 4z m1232 -17 c-7 -7 -12 -8
-12 -2 0 14 12 26 19 19 2 -3 -1 -11 -7 -17z m-952 5 c0 -17 -56 -63 -77 -63
-14 0 -21 -4 -18 -10 9 -15 -27 -11 -49 5 -19 15 -19 15 5 15 47 0 97 20 102
40 5 18 37 29 37 13z m90 3 c0 -3 -4 -8 -10 -11 -5 -3 -10 -1 -10 4 0 6 5 11
10 11 6 0 10 -2 10 -4z m110 -21 c-7 -8 -17 -15 -22 -15 -6 0 -5 7 2 15 7 8
17 15 22 15 6 0 5 -7 -2 -15z m40 5 c0 -5 -5 -10 -11 -10 -5 0 -7 5 -4 10 3 6
8 10 11 10 2 0 4 -4 4 -10z m65 0 c3 -5 -1 -10 -10 -10 -9 0 -13 5 -10 10 3 6
8 10 10 10 2 0 7 -4 10 -10z m-148 -6 c-3 -3 -12 -4 -19 -1 -8 3 -5 6 6 6 11
1 17 -2 13 -5z m813 -4 c0 -5 -5 -10 -11 -10 -5 0 -7 5 -4 10 3 6 8 10 11 10
2 0 4 -4 4 -10z m492 -19 c-12 -22 -20 -27 -29 -19 -10 8 -8 14 10 29 32 27
38 23 19 -10z m-1767 -1 c-3 -5 -11 -10 -16 -10 -6 0 -7 5 -4 10 3 6 11 10 16
10 6 0 7 -4 4 -10z m25 -10 c0 -5 -5 -10 -11 -10 -5 0 -7 5 -4 10 3 6 8 10 11
10 2 0 4 -4 4 -10z m970 6 c0 -11 -19 -15 -25 -6 -3 5 1 10 9 10 9 0 16 -2 16
-4z m280 -43 c0 -7 -4 -13 -10 -13 -5 0 -7 7 -4 15 4 8 1 15 -6 15 -6 0 -8 5
-4 11 7 12 24 -7 24 -28z m-1147 20 c-7 -2 -19 -2 -25 0 -7 3 -2 5 12 5 14 0
19 -2 13 -5z m-119 -24 c-12 -13 -20 -16 -22 -9 -3 7 2 16 9 21 25 16 32 9 13
-12z m71 11 c3 -5 -1 -10 -9 -10 -8 0 -18 5 -21 10 -3 6 1 10 9 10 8 0 18 -4
21 -10z m1465 6 c0 -3 -4 -8 -10 -11 -5 -3 -10 -1 -10 4 0 6 5 11 10 11 6 0
10 -2 10 -4z m-480 -26 c0 -13 -11 -13 -30 0 -12 8 -11 10 8 10 12 0 22 -4 22
-10z m695 0 c3 -5 2 -10 -4 -10 -5 0 -13 5 -16 10 -3 6 -2 10 4 10 5 0 13 -4
16 -10z m-1745 -20 c0 -5 -5 -10 -11 -10 -5 0 -7 5 -4 10 3 6 8 10 11 10 2 0
4 -4 4 -10z m1055 -10 c-3 -5 -11 -10 -16 -10 -6 0 -7 5 -4 10 3 6 11 10 16
10 6 0 7 -4 4 -10z m485 -21 c0 -5 -4 -9 -8 -9 -5 0 -9 7 -9 15 0 8 4 12 9 9
4 -3 8 -9 8 -15z m255 -42 c39 -84 40 -86 11 -52 -14 17 -26 38 -26 48 0 9 -5
17 -12 17 -6 0 -8 3 -5 6 3 4 2 15 -4 25 -5 11 -6 19 -2 19 4 -1 21 -29 38
-63z m-1423 21 c-7 -7 -12 -8 -12 -2 0 14 12 26 19 19 2 -3 -1 -11 -7 -17z
m885 9 c0 -8 -6 -14 -14 -14 -14 0 -17 10 -6 20 10 11 20 8 20 -6z m-1257 -7
c0 -5 -5 -10 -11 -10 -5 0 -7 5 -4 10 3 6 8 10 11 10 2 0 4 -4 4 -10z m1538
-55 c0 -49 -13 -52 -15 -4 -1 21 2 39 7 39 4 0 8 -16 8 -35z m-278 12 c0 -7
-7 -22 -15 -33 -14 -18 -14 -18 -15 7 0 14 3 29 7 32 11 11 23 8 23 -6z
m-1257 -8 c-6 -6 -9 -17 -7 -24 5 -12 -23 -42 -31 -33 -8 8 25 68 38 68 8 0 8
-3 0 -11z m1025 -1 c-10 -32 -136 -67 -145 -40 -3 9 11 12 51 12 45 0 57 4 66
20 12 22 34 28 28 8z m-415 -35 c-7 -2 -19 -2 -25 0 -7 3 -2 5 12 5 14 0 19
-2 13 -5z m51 -8 c-4 -8 -8 -15 -10 -15 -2 0 -4 7 -4 15 0 8 4 15 10 15 5 0 7
-7 4 -15z m146 5 c0 -5 -10 -10 -22 -10 -19 0 -20 2 -8 10 19 13 30 13 30 0z
m-313 -6 c-3 -3 -12 -4 -19 -1 -8 3 -5 6 6 6 11 1 17 -2 13 -5z m368 -4 c4 -6
-5 -10 -20 -10 -15 0 -24 4 -20 10 3 6 12 10 20 10 8 0 17 -4 20 -10z"/>
<path d="M7927 3463 l-127 -4 3 -267 c2 -147 7 -273 11 -280 5 -8 44 -12 124
-12 64 0 133 -4 152 -8 19 -5 42 -6 52 -4 20 4 32 46 19 71 -13 23 -101 35
-155 20 -22 -6 -59 -8 -83 -4 l-43 6 0 80 c0 43 1 80 3 80 1 1 49 4 107 8
l105 6 3 28 c6 52 -10 59 -120 51 l-98 -7 0 71 c0 68 1 70 28 77 20 5 160 15
224 15 7 0 22 59 16 65 -8 8 -102 11 -221 8z m-49 -48 c-15 -8 -34 -12 -42 -9
-26 10 -7 24 32 24 l37 -1 -27 -14z m-28 -144 c0 -6 -4 -13 -10 -16 -5 -3 -10
1 -10 9 0 9 5 16 10 16 6 0 10 -4 10 -9z m0 -65 c0 -3 -4 -8 -10 -11 -5 -3
-10 -1 -10 4 0 6 5 11 10 11 6 0 10 -2 10 -4z m110 -21 c-7 -8 -17 -15 -22
-15 -6 0 -5 7 2 15 7 8 17 15 22 15 6 0 5 -7 -2 -15z m40 5 c0 -5 -5 -10 -11
-10 -5 0 -7 5 -4 10 3 6 8 10 11 10 2 0 4 -4 4 -10z m65 0 c3 -5 -1 -10 -10
-10 -9 0 -13 5 -10 10 3 6 8 10 10 10 2 0 7 -4 10 -10z m-148 -6 c-3 -3 -12
-4 -19 -1 -8 3 -5 6 6 6 11 1 17 -2 13 -5z m-75 -156 c-7 -7 -12 -8 -12 -2 0
14 12 26 19 19 2 -3 -1 -11 -7 -17z m253 -87 c3 -5 0 -13 -6 -17 -7 -4 -9 -3
-5 4 3 6 -3 12 -16 15 -23 4 -23 4 -1 6 12 0 24 -3 28 -8z m39 -6 c-4 -8 -8
-15 -10 -15 -2 0 -4 7 -4 15 0 8 4 15 10 15 5 0 7 -7 4 -15z"/>
<path d="M4535 2695 c-29 -8 -59 -24 -72 -39 -21 -25 -22 -34 -22 -194 0 -111
-5 -197 -16 -257 -21 -118 -121 -415 -159 -474 -51 -78 -147 -167 -195 -182
-42 -12 -44 -12 -66 13 -48 55 -55 234 -29 670 9 148 13 288 10 313 -4 26 -18
58 -32 75 -24 27 -31 30 -89 30 -123 0 -286 -65 -314 -126 -28 -63 -36 -174
-36 -519 0 -381 5 -433 57 -591 30 -92 78 -169 130 -207 34 -25 112 -33 180
-17 134 32 269 128 372 265 75 99 201 336 251 470 34 92 95 318 110 407 5 35
8 37 51 44 24 3 71 4 103 2 70 -5 118 -36 147 -95 27 -55 31 -186 9 -255 -23
-70 -97 -216 -151 -301 -65 -100 -70 -88 95 -235 92 -83 129 -144 163 -271 29
-105 31 -346 4 -440 -35 -128 -99 -221 -178 -262 -45 -23 -171 -26 -222 -5
-89 37 -151 130 -166 250 -18 139 14 234 140 426 39 58 70 116 70 129 0 12
-14 36 -30 53 -27 26 -36 30 -69 25 -57 -7 -111 -36 -158 -85 -49 -50 -115
-178 -139 -267 -22 -85 -29 -238 -15 -308 37 -174 181 -328 346 -371 184 -49
425 27 601 188 234 213 347 547 278 820 -5 22 3 36 51 87 68 74 176 237 222
337 52 112 120 325 145 454 22 114 23 117 51 122 47 10 143 7 174 -5 92 -34
140 -161 113 -295 -14 -72 -89 -233 -159 -341 -28 -44 -51 -87 -51 -96 0 -9
35 -46 77 -84 135 -119 158 -146 191 -224 43 -104 62 -209 62 -341 -1 -231
-64 -390 -184 -459 -44 -25 -61 -29 -126 -29 -186 0 -289 130 -278 348 6 110
32 175 131 325 40 62 76 119 79 128 10 25 -19 78 -49 90 -89 34 -224 -62 -293
-207 -66 -137 -94 -328 -66 -447 53 -226 240 -386 454 -387 67 0 192 26 257
53 141 60 294 188 382 319 121 184 177 427 139 607 l-16 75 58 62 c31 34 59
62 62 63 3 0 20 -27 39 -62 96 -175 302 -290 521 -291 82 -1 102 3 150 25 30
14 77 45 103 69 26 23 49 41 51 39 86 -122 159 -151 292 -115 115 30 248 133
340 261 60 84 135 237 175 354 28 85 31 101 19 115 -24 29 -53 15 -87 -44
-120 -206 -220 -323 -286 -335 -45 -9 -54 -3 -81 54 -20 45 -21 58 -21 486 0
408 -1 443 -18 468 -10 15 -30 33 -45 38 -37 15 -123 5 -207 -24 l-70 -24 -45
29 c-207 132 -526 34 -705 -217 -108 -151 -164 -324 -171 -524 -2 -79 -8 -129
-16 -140 -37 -47 -112 -131 -117 -131 -4 0 -26 29 -49 65 -24 35 -69 90 -100
122 l-58 57 74 106 c102 143 124 195 130 299 14 241 -106 398 -360 472 -59 17
-110 22 -263 26 -212 6 -288 -4 -333 -42 l-27 -23 3 -134 c5 -219 -23 -376
-104 -603 -40 -111 -117 -235 -187 -304 l-45 -43 -37 58 c-21 33 -67 89 -102
125 l-63 66 34 44 c76 101 137 206 158 272 35 116 13 266 -53 363 -74 109
-198 180 -364 209 -111 19 -389 19 -460 0z m3101 -262 c47 -50 52 -98 59 -531
l6 -403 -34 -34 c-38 -38 -64 -43 -129 -23 -82 24 -156 116 -195 243 -24 79
-25 345 -1 450 46 204 132 325 230 325 29 0 45 -7 64 -27z"/>
</g>
</svg>
