<?xml version="1.0" standalone="no"?>
<!DOCTYPE svg PUBLIC "-//W3C//DTD SVG 20010904//EN"
 "http://www.w3.org/TR/2001/REC-SVG-20010904/DTD/svg10.dtd">
<svg version="1.0" xmlns="http://www.w3.org/2000/svg"
 width="1055.000000pt" height="549.000000pt" viewBox="0 0 1055.000000 549.000000"
 preserveAspectRatio="xMidYMid meet">

<g transform="translate(0.000000,549.000000) scale(0.100000,-0.100000)"
fill="#000000" stroke="none">
<path d="M8024 4314 c-18 -14 -18 -14 5 -3 15 7 50 10 90 6 38 -2 58 -1 46 4
-35 14 -120 10 -141 -7z"/>
<path d="M8041 4290 c-12 -6 -44 -28 -69 -50 -49 -43 -56 -46 -145 -54 -57 -5
-104 -25 -112 -49 -2 -7 -9 -31 -15 -55 -7 -25 -29 -62 -55 -92 -25 -28 -45
-55 -45 -60 0 -18 51 -10 94 15 24 14 70 29 107 34 37 5 85 19 107 30 33 17
60 21 129 21 98 0 122 10 149 62 17 33 12 32 113 4 46 -13 57 -14 87 -1 19 8
34 19 34 24 0 6 5 11 10 11 22 0 8 -32 -22 -50 -41 -25 -68 -25 -138 0 -40 14
-56 16 -59 7 -2 -7 -19 -27 -37 -44 -32 -33 -33 -33 -126 -33 -76 0 -101 -4
-132 -21 -22 -11 -69 -25 -105 -31 -36 -6 -90 -23 -120 -39 -53 -29 -79 -30
-108 -7 -16 13 3 52 42 88 33 30 50 63 58 110 6 31 4 30 -19 -18 -14 -29 -44
-67 -66 -85 -55 -44 -73 -81 -58 -117 11 -26 54 -51 84 -49 6 0 -5 6 -24 13
-19 7 -34 16 -33 20 2 5 29 9 60 10 32 1 84 9 117 16 57 14 59 14 107 -13 64
-35 97 -34 144 3 55 44 78 47 155 20 81 -28 110 -23 141 26 27 44 73 65 122
57 63 -10 87 4 193 113 90 92 100 105 84 114 -26 14 -83 12 -160 -5 -104 -23
-135 -19 -255 31 -113 46 -192 61 -234 44z m97 -207 c-9 -12 -25 -14 -69 -9
-42 5 -79 1 -137 -14 -86 -21 -162 -26 -162 -10 0 6 15 10 33 10 17 0 70 9
117 21 60 14 102 19 142 15 33 -3 60 -1 63 4 4 6 11 8 16 4 6 -3 5 -12 -3 -21z"/>
<path d="M7890 4224 c-24 -9 -29 -13 -14 -13 11 -1 29 6 40 14 22 17 20 17
-26 -1z"/>
<path d="M7733 4198 c-12 -6 -25 -18 -28 -26 -5 -14 -4 -14 12 0 10 8 27 20
38 26 25 14 7 14 -22 0z"/>
<path d="M8315 3930 c-42 -66 -80 -74 -178 -40 -51 18 -61 19 -91 6 -50 -21
-49 -31 2 -31 26 -1 75 -6 110 -12 75 -14 101 -7 152 42 19 18 51 42 70 54
l35 21 -37 0 c-33 0 -41 -5 -63 -40z"/>
<path d="M7705 3870 l-60 -19 70 1 c48 1 80 -4 103 -16 19 -10 49 -16 70 -14
l36 3 -62 33 c-70 36 -74 36 -157 12z"/>
<path d="M4432 3543 c0 -151 -22 -262 -77 -380 -19 -42 -35 -80 -35 -84 0 -19
69 -8 121 19 110 55 175 191 167 346 -3 58 -11 96 -27 129 -26 53 -81 97 -123
97 l-27 0 1 -127z"/>
</g>
</svg>
